HIERARCHY
ROOT Spine
{
    OFFSET 0.0 0.0 -0.0
    CHANNELS 6 Xposition Yposition Zposition Zrotation Xrotation Yrotation
    JOINT ShoulderCenter
    {
        OFFSET 0.0 34.96759796142578 0.0
        CHANNELS 3 Zrotation Xrotation Yrotation
        JOINT LeftShoulder
        {
            OFFSET 18.57907485961914 0.0 0.0
            CHANNELS 3 Zrotation Xrotation Yrotation
            JOINT LeftElbow
            {
                OFFSET 29.718101501464844 0.0 0.0
                CHANNELS 3 Zrotation Xrotation Yrotation
                JOINT LeftHand
                {
                    OFFSET 33.27631378173828 0.0 0.0
                    CHANNELS 3 Zrotation Xrotation Yrotation
                    End Site
                    {
                        OFFSET 13.310523986816406 0.0 0.0
                    }
                }
            }
        }
        JOINT RightShoulder
        {
            OFFSET -18.57907485961914 0.0 0.0
            CHANNELS 3 Zrotation Xrotation Yrotation
            JOINT RightElbow
            {
                OFFSET -29.718101501464844 0.0 0.0
                CHANNELS 3 Zrotation Xrotation Yrotation
                JOINT RightHand
                {
                    OFFSET -33.27631378173828 0.0 0.0
                    CHANNELS 3 Zrotation Xrotation Yrotation
                    End Site
                    {
                        OFFSET -13.310523986816406 0.0 0.0
                    }
                }
            }
        }
        End Site
        {
            OFFSET 0.0 13.987040519714355 0.0
        }
    }
    JOINT LeftHip
    {
        OFFSET 17.950773015819365 -17.950773015819365 0.0
        CHANNELS 3 Zrotation Xrotation Yrotation
        JOINT LeftKnee
        {
            OFFSET 0.0 -41.610260009765625 0.0
            CHANNELS 3 Zrotation Xrotation Yrotation
            JOINT LeftFoot
            {
                OFFSET 0.0 -43.746681213378906 0.0
                CHANNELS 3 Zrotation Xrotation Yrotation
                End Site
                {
                    OFFSET 0.0 0.0 17.498674392700195
                }
            }
        }
    }
    JOINT RightHip
    {
        OFFSET -17.950773015819365 -17.950773015819365 0.0
        CHANNELS 3 Zrotation Xrotation Yrotation
        JOINT RightKnee
        {
            OFFSET 0.0 -41.610260009765625 0.0
            CHANNELS 3 Zrotation Xrotation Yrotation
            JOINT RightFoot
            {
                OFFSET 0.0 -43.746681213378906 0.0
                CHANNELS 3 Zrotation Xrotation Yrotation
                End Site
                {
                    OFFSET 0.0 0.0 17.498674392700195
                }
            }
        }
    }
}
MOTION
Frames: 5
Frame Time: 0.03333333333333333
29.69999885559082 12.199999809265137 3.0 -2.7807572208196274 1.144414201779187 104.43214723790295 -1.397101827078565e-07 -2.761380873402946e-07 0.21780673093742559 147.56435985704613 20.317131874413857 -160.05343487408874 4.422696794383686e-07 1.8969987665272816e-06 112.53453540134188 -7.951386703658792e-16 0.0 0.0 -118.47319489352566 -16.87714229302267 -179.5506263702333 -5.830876623322096e-06 4.280313016799093e-06 -96.51875878053542 3.1805546814635168e-15 6.3611093629270335e-15 3.1805546814635168e-15 -1.3970255394861433 -11.834321880897422 -3.6837945068182285 3.6395726280248244 8.217778071426398 -23.417208031216287 0.0 0.0 9.93923337957349e-16 1.313224507730931 6.301973200952799 30.088294487125914 -11.132877717777067 -1.1420720806787792 -2.4149427265631376 0.0 0.0 -7.16867207501738e-15
29.600000381469727 12.199999809265137 3.0999999046325684 -3.2704912649791718 0.49029546656428136 104.47649763448437 -2.9655151526316587e-07 -2.1145136517046218e-07 0.0011968845761912686 146.7409552514192 19.85406354259071 -160.10607074833456 -6.809491477949055e-07 4.013802471256047e-06 113.80568554088406 0.0 0.0 -3.1805546814635168e-15 -117.90560484412894 -17.915905125984818 179.9170513978727 -2.501442195592749e-06 3.0031004853230173e-06 -97.833317287871 3.1805546814635168e-15 6.3611093629270335e-15 -1.7655625192200634e-31 -0.796432004678014 -12.634371997144903 -2.7273484932513132 3.6486614416794048 8.183733112520635 -23.405948826517527 -1.2371006909574176e-32 3.975693351829396e-16 3.56569997492199e-15 1.7919780410254398 5.530891759290054 29.937543638092695 -11.127905703983838 -1.1654649501035665 -2.5055259756466035 3.9756933518293955e-16 -2.8880050973570375e-33 -8.324107955392796e-16
29.600000381469727 12.300000190734863 3.0999999046325684 -3.6069941211697496 0.16384617493350423 104.46245237600917 -3.0285844884404984e-07 -2.807722943204542e-07 -0.15960254082384745 145.5367474824203 19.58360149338564 -160.22656033614396 3.279525954224155e-07 -1.3732301618712067e-06 115.29688909336686 1.5902773407317584e-15 0.0 0.0 -117.22229759414262 -19.165356714666494 179.72991119981037 -2.2320487153052059e-07 3.921342292545437e-07 -99.34036587657292 3.1805546814635164e-15 -8.827812596100317e-32 -3.1805546814635164e-15 -0.4614486751130274 -13.205168529782267 -0.8682693930688292 3.7772596420735223 8.097273581112251 -23.68318652625268 -3.975693351829396e-16 7.413983235006126e-33 -2.1369351766083005e-15 1.99423140225406 5.011746371480102 29.08933820983642 -11.093562836085443 -1.3780097046240902 -3.0037117858054385 0.0 0.0 -7.032007616048244e-15
29.499998092651367 12.300000190734863 3.0999999046325684 -4.085620070021334 -0.32656891125345516 104.10004999092268 1.2813290177219932e-07 1.058753405447462e-07 -0.1698443925026524 144.35764154470095 19.60554453928031 -160.15345859721614 2.910374291556201e-06 2.3267988126826516e-06 116.41397636568128 7.951386703658792e-16 2.2069531490250793e-32 3.1805546814635168e-15 -116.82487464610385 -20.339785428617695 178.8906678942151 1.2334169775152834e-06 -1.4636202723004903e-06 -100.66211410098062 -3.1805546814635168e-15 0.0 0.0 -0.052122486298592806 -13.921566646613226 -0.0308093340872472 4.007155730778608 8.16227246362208 -24.367382995757588 0.0 0.0 -9.42984766887035e-15 2.3124361683045795 4.420458987205814 28.62268196071201 -11.026931036755784 -1.9180534393574107 -4.12346449145156 0.0 0.0 1.3169484227934873e-15
29.399999618530273 12.300000190734863 3.0999999046325684 -4.736550782432327 -0.8156609395990696 103.87595517612499 1.346860055294162e-08 8.401171905417495e-08 -0.12875274248055302 142.90224223834073 19.80058832820285 -159.79308993770726 3.957151915615217e-06 7.773869954424655e-07 118.0349792650095 -5.565970692561154e-15 0.0 0.0 -116.38556804965042 -21.040062006017802 178.20709993324422 6.74249728704818e-06 2.1475306123776326e-07 -102.21055455255203 0.0 0.0 -3.1805546814635168e-15 0.42572997746524577 -14.856522493414742 1.623849497344358 4.228849653411367 8.217834179689273 -25.406591081090674 -7.951386703658791e-16 7.951386703658791e-16 3.1805546814635164e-15 2.4836514592702565 3.734829917707876 28.22179895331275 -10.96387668433911 -2.641376164182253 -5.712633863450963 -2.069018577211012e-33 -7.95138670365879e-16 -2.981770013872046e-16
